<mxfile host="app.diagrams.net" modified="2023-09-01T15:44:41.036Z" agent="Mozilla/5.0 (Windows NT 10.0; Win64; x64) AppleWebKit/537.36 (KHTML, like Gecko) Chrome/116.0.0.0 Safari/537.36" etag="JLU_qpHRNRyVermOk-xv" version="21.7.1" type="device">
  <diagram id="3228e29e-7158-1315-38df-8450db1d8a1d" name="Page-1">
    <mxGraphModel dx="1750" dy="968" grid="1" gridSize="10" guides="1" tooltips="1" connect="1" arrows="1" fold="1" page="1" pageScale="1" pageWidth="650" pageHeight="600" background="none" math="0" shadow="0">
      <root>
        <mxCell id="0" />
        <mxCell id="1" parent="0" />
        <mxCell id="21531" value="" style="ellipse;fillColor=#6d8764;opacity=60;strokeColor=#3A5431;html=1;fontColor=#ffffff;" parent="1" vertex="1">
          <mxGeometry x="135" y="184.5" width="400" height="400" as="geometry" />
        </mxCell>
        <mxCell id="21532" value="" style="ellipse;fillColor=#4C4C8A;opacity=60;strokeColor=#432D57;html=1;fontColor=#ffffff;" parent="1" vertex="1">
          <mxGeometry x="10" y="16" width="400" height="400" as="geometry" />
        </mxCell>
        <mxCell id="21533" value="" style="ellipse;fillColor=#a20025;opacity=60;strokeColor=#6F0000;html=1;fontColor=#ffffff;" parent="1" vertex="1">
          <mxGeometry x="239.5" y="26" width="400" height="400" as="geometry" />
        </mxCell>
        <mxCell id="21534" value="&lt;b&gt;&lt;font style=&quot;font-size: 27px;&quot;&gt;LMD&lt;/font&gt;&lt;/b&gt;" style="text;fontSize=24;align=center;verticalAlign=middle;html=1;fontColor=#FFFFFF;" parent="1" vertex="1">
          <mxGeometry x="30" y="66" width="190" height="70" as="geometry" />
        </mxCell>
        <mxCell id="21536" value="1" style="text;fontSize=24;align=center;verticalAlign=middle;html=1;fontColor=#000000;strokeWidth=1;" parent="1" vertex="1">
          <mxGeometry x="240" y="426" width="190" height="70" as="geometry" />
        </mxCell>
        <mxCell id="nRSviscbLS-JOwCY95lP-21540" value="&lt;span style=&quot;font-size: 27px;&quot;&gt;&lt;b&gt;AL&lt;/b&gt;&lt;/span&gt;" style="text;fontSize=24;align=center;verticalAlign=middle;html=1;fontColor=#FFFFFF;strokeWidth=1;" vertex="1" parent="1">
          <mxGeometry x="380" y="44.5" width="190" height="70" as="geometry" />
        </mxCell>
        <mxCell id="nRSviscbLS-JOwCY95lP-21541" value="&lt;b&gt;&lt;font style=&quot;font-size: 27px;&quot;&gt;C&lt;/font&gt;&lt;/b&gt;" style="text;fontSize=24;align=center;verticalAlign=middle;html=1;fontColor=#FFFFFF;strokeWidth=1;" vertex="1" parent="1">
          <mxGeometry x="240" y="504.5" width="190" height="70" as="geometry" />
        </mxCell>
        <mxCell id="nRSviscbLS-JOwCY95lP-21547" value="10" style="text;fontSize=24;align=center;verticalAlign=middle;html=1;fontColor=#000000;strokeWidth=1;" vertex="1" parent="1">
          <mxGeometry x="350" y="306" width="190" height="70" as="geometry" />
        </mxCell>
        <mxCell id="nRSviscbLS-JOwCY95lP-21548" value="10" style="text;fontSize=24;align=center;verticalAlign=middle;html=1;fontColor=#000000;strokeWidth=1;" vertex="1" parent="1">
          <mxGeometry x="230" y="236" width="190" height="70" as="geometry" />
        </mxCell>
        <mxCell id="nRSviscbLS-JOwCY95lP-21549" value="9" style="text;fontSize=24;align=center;verticalAlign=middle;html=1;fontColor=#000000;strokeWidth=1;" vertex="1" parent="1">
          <mxGeometry x="130" y="306" width="190" height="70" as="geometry" />
        </mxCell>
        <mxCell id="nRSviscbLS-JOwCY95lP-21550" value="12" style="text;fontSize=24;align=center;verticalAlign=middle;html=1;fontColor=#000000;strokeWidth=1;" vertex="1" parent="1">
          <mxGeometry x="410" y="166" width="190" height="70" as="geometry" />
        </mxCell>
        <mxCell id="nRSviscbLS-JOwCY95lP-21551" value="15" style="text;fontSize=24;align=center;verticalAlign=middle;html=1;fontColor=#000000;strokeWidth=1;" vertex="1" parent="1">
          <mxGeometry x="230" y="106" width="190" height="70" as="geometry" />
        </mxCell>
        <mxCell id="nRSviscbLS-JOwCY95lP-21552" value="4" style="text;fontSize=24;align=center;verticalAlign=middle;html=1;fontColor=#000000;strokeWidth=1;" vertex="1" parent="1">
          <mxGeometry x="40" y="181" width="190" height="70" as="geometry" />
        </mxCell>
      </root>
    </mxGraphModel>
  </diagram>
</mxfile>
